<svg width="42" height="13" viewBox="0 0 42 13" fill="none" xmlns="http://www.w3.org/2000/svg">
<mask id="path-1-outside-1_3_388" maskUnits="userSpaceOnUse" x="-0.685059" y="0" width="42" height="13" fill="black">
<rect fill="white" x="-0.685059" width="42" height="13"/>
<path d="M4.75298 12C4.03795 12 3.38658 11.9074 2.79888 11.7221C2.21118 11.527 1.71654 11.2735 1.31494 10.9614L2.02018 9.79122C2.3728 10.0838 2.7695 10.3227 3.21027 10.508C3.65105 10.6933 4.16528 10.7859 4.75298 10.7859C5.45822 10.7859 6.01654 10.6396 6.42793 10.3471C6.83932 10.0545 7.04501 9.65957 7.04501 9.16223C7.04501 8.87943 6.98624 8.63076 6.8687 8.41622C6.75116 8.19193 6.52098 7.97739 6.17815 7.77261C5.84513 7.55807 5.35048 7.3289 4.69421 7.08511C3.98897 6.81206 3.42576 6.53901 3.00458 6.26596C2.58339 5.98316 2.27975 5.66622 2.09364 5.31516C1.91733 4.95434 1.82918 4.53014 1.82918 4.04255C1.82918 3.55496 1.96141 3.11613 2.22588 2.72606C2.50014 2.32624 2.89683 2.00931 3.41597 1.77527C3.9449 1.53147 4.58157 1.40957 5.32599 1.40957C5.93328 1.40957 6.4769 1.47296 6.95686 1.59973C7.44661 1.71675 7.92166 1.88741 8.38203 2.1117L7.86779 3.29654C7.53476 3.10151 7.14296 2.9406 6.69239 2.81383C6.25162 2.6773 5.78636 2.60904 5.29661 2.60904C4.65014 2.60904 4.1408 2.73581 3.76859 2.98936C3.39638 3.24291 3.21027 3.56959 3.21027 3.96941C3.21027 4.22296 3.26414 4.44725 3.37189 4.64229C3.47963 4.83732 3.69023 5.02748 4.00367 5.21277C4.3269 5.39805 4.80686 5.60771 5.44353 5.84176C6.20754 6.12456 6.80993 6.42199 7.25071 6.73404C7.70128 7.0461 8.01961 7.38741 8.20572 7.75798C8.39182 8.11879 8.48488 8.53324 8.48488 9.00133C8.48488 9.63519 8.32326 10.1764 8.00002 10.625C7.68658 11.0736 7.24581 11.4149 6.6777 11.6489C6.11939 11.883 5.47781 12 4.75298 12Z"/>
<path d="M13.324 12C12.6873 12 12.1094 11.8391 11.5903 11.5173C11.0711 11.1955 10.6548 10.742 10.3414 10.1569C10.0378 9.56206 9.88594 8.8648 9.88594 8.06516C9.88594 7.30452 10.0378 6.6219 10.3414 6.01729C10.6548 5.41268 11.0809 4.93484 11.6197 4.58378C12.1682 4.22296 12.7951 4.04255 13.5003 4.04255C13.9411 4.04255 14.3378 4.12057 14.6904 4.2766C15.0528 4.42287 15.3662 4.60816 15.6307 4.83245V4.21808H16.8355V9.98138C16.8355 10.352 16.9236 10.5957 17.1 10.7128C17.2861 10.82 17.4869 10.8737 17.7023 10.8737L17.4232 11.8976C16.4829 11.8976 15.9148 11.5173 15.7189 10.7566C15.4936 11.0687 15.185 11.3564 14.7932 11.6197C14.4112 11.8732 13.9215 12 13.324 12ZM13.6178 10.8298C13.99 10.8298 14.3427 10.742 14.6757 10.5665C15.0087 10.3812 15.2879 10.152 15.5132 9.87899V5.79787C15.2487 5.61259 14.9549 5.46631 14.6316 5.35904C14.3182 5.24202 13.9851 5.18351 13.6325 5.18351C13.1624 5.18351 12.7461 5.30541 12.3837 5.5492C12.031 5.78324 11.7519 6.1148 11.5462 6.54388C11.3405 6.96321 11.2377 7.45567 11.2377 8.02128C11.2377 8.56738 11.3405 9.05496 11.5462 9.48404C11.7519 9.90337 12.0359 10.2349 12.3984 10.4787C12.7608 10.7128 13.1673 10.8298 13.6178 10.8298Z"/>
<path d="M21.7896 12C21.339 12 20.9326 11.9171 20.5701 11.7513C20.2077 11.5758 19.9188 11.2979 19.7033 10.9176C19.4976 10.5372 19.3947 10.0448 19.3947 9.44016V1H20.7171V9.30851C20.7171 9.83511 20.8248 10.2252 21.0403 10.4787C21.2656 10.7323 21.5741 10.859 21.9659 10.859C22.152 10.859 22.3332 10.8395 22.5095 10.8005C22.6956 10.7518 22.8524 10.6981 22.9797 10.6396L23.3029 11.7074C23.1266 11.7855 22.9062 11.8537 22.6418 11.9122C22.3871 11.9707 22.1031 12 21.7896 12Z"/>
<path d="M27.5499 12C26.825 12 26.1737 11.8342 25.5958 11.5027C25.0179 11.1613 24.5624 10.6933 24.2294 10.0984C23.9061 9.49379 23.7445 8.80142 23.7445 8.02128C23.7445 7.20213 23.911 6.49512 24.2441 5.90027C24.5771 5.30541 25.0326 4.84707 25.6105 4.52527C26.1884 4.20346 26.8348 4.04255 27.5499 4.04255C28.2649 4.04255 28.9065 4.20346 29.4746 4.52527C30.0525 4.84707 30.508 5.30541 30.841 5.90027C31.1838 6.48537 31.3552 7.18262 31.3552 7.99202C31.3552 8.80142 31.1887 9.50842 30.8557 10.113C30.5226 10.7079 30.0672 11.1711 29.4893 11.5027C28.9212 11.8342 28.2747 12 27.5499 12ZM27.5499 10.8298C28.3237 10.8298 28.9261 10.5714 29.357 10.0545C29.788 9.52793 30.0035 8.85018 30.0035 8.02128C30.0035 7.51418 29.8958 7.05097 29.6803 6.63165C29.4648 6.20257 29.1709 5.86126 28.7987 5.60771C28.4363 5.34441 28.02 5.21277 27.5499 5.21277C26.7761 5.21277 26.1737 5.46631 25.7427 5.9734C25.3117 6.4805 25.0962 7.15337 25.0962 7.99202C25.0962 8.49911 25.204 8.97207 25.4195 9.4109C25.6349 9.83998 25.9239 10.1862 26.2863 10.4495C26.6585 10.703 27.0797 10.8298 27.5499 10.8298Z"/>
<path d="M33.8943 11.8245V4.21808H35.1726V5.49069C35.4468 5.08112 35.7946 4.7398 36.2157 4.46676C36.6467 4.18395 37.1561 4.04255 37.7438 4.04255C38.6057 4.04255 39.2473 4.30098 39.6685 4.81782C40.0995 5.33466 40.3149 6.01729 40.3149 6.86569V11.8245H38.9926V7.01197C38.9926 6.46587 38.8604 6.02704 38.5959 5.69548C38.3413 5.36392 37.9837 5.19814 37.5234 5.19814C37.0728 5.19814 36.6467 5.35904 36.2451 5.68085C35.8435 5.99291 35.5007 6.36347 35.2167 6.79255V11.8245H33.8943Z"/>
</mask>
<path d="M4.75298 12C4.03795 12 3.38658 11.9074 2.79888 11.7221C2.21118 11.527 1.71654 11.2735 1.31494 10.9614L2.02018 9.79122C2.3728 10.0838 2.7695 10.3227 3.21027 10.508C3.65105 10.6933 4.16528 10.7859 4.75298 10.7859C5.45822 10.7859 6.01654 10.6396 6.42793 10.3471C6.83932 10.0545 7.04501 9.65957 7.04501 9.16223C7.04501 8.87943 6.98624 8.63076 6.8687 8.41622C6.75116 8.19193 6.52098 7.97739 6.17815 7.77261C5.84513 7.55807 5.35048 7.3289 4.69421 7.08511C3.98897 6.81206 3.42576 6.53901 3.00458 6.26596C2.58339 5.98316 2.27975 5.66622 2.09364 5.31516C1.91733 4.95434 1.82918 4.53014 1.82918 4.04255C1.82918 3.55496 1.96141 3.11613 2.22588 2.72606C2.50014 2.32624 2.89683 2.00931 3.41597 1.77527C3.9449 1.53147 4.58157 1.40957 5.32599 1.40957C5.93328 1.40957 6.4769 1.47296 6.95686 1.59973C7.44661 1.71675 7.92166 1.88741 8.38203 2.1117L7.86779 3.29654C7.53476 3.10151 7.14296 2.9406 6.69239 2.81383C6.25162 2.6773 5.78636 2.60904 5.29661 2.60904C4.65014 2.60904 4.1408 2.73581 3.76859 2.98936C3.39638 3.24291 3.21027 3.56959 3.21027 3.96941C3.21027 4.22296 3.26414 4.44725 3.37189 4.64229C3.47963 4.83732 3.69023 5.02748 4.00367 5.21277C4.3269 5.39805 4.80686 5.60771 5.44353 5.84176C6.20754 6.12456 6.80993 6.42199 7.25071 6.73404C7.70128 7.0461 8.01961 7.38741 8.20572 7.75798C8.39182 8.11879 8.48488 8.53324 8.48488 9.00133C8.48488 9.63519 8.32326 10.1764 8.00002 10.625C7.68658 11.0736 7.24581 11.4149 6.6777 11.6489C6.11939 11.883 5.47781 12 4.75298 12Z" fill="white"/>
<path d="M13.324 12C12.6873 12 12.1094 11.8391 11.5903 11.5173C11.0711 11.1955 10.6548 10.742 10.3414 10.1569C10.0378 9.56206 9.88594 8.8648 9.88594 8.06516C9.88594 7.30452 10.0378 6.6219 10.3414 6.01729C10.6548 5.41268 11.0809 4.93484 11.6197 4.58378C12.1682 4.22296 12.7951 4.04255 13.5003 4.04255C13.9411 4.04255 14.3378 4.12057 14.6904 4.2766C15.0528 4.42287 15.3662 4.60816 15.6307 4.83245V4.21808H16.8355V9.98138C16.8355 10.352 16.9236 10.5957 17.1 10.7128C17.2861 10.82 17.4869 10.8737 17.7023 10.8737L17.4232 11.8976C16.4829 11.8976 15.9148 11.5173 15.7189 10.7566C15.4936 11.0687 15.185 11.3564 14.7932 11.6197C14.4112 11.8732 13.9215 12 13.324 12ZM13.6178 10.8298C13.99 10.8298 14.3427 10.742 14.6757 10.5665C15.0087 10.3812 15.2879 10.152 15.5132 9.87899V5.79787C15.2487 5.61259 14.9549 5.46631 14.6316 5.35904C14.3182 5.24202 13.9851 5.18351 13.6325 5.18351C13.1624 5.18351 12.7461 5.30541 12.3837 5.5492C12.031 5.78324 11.7519 6.1148 11.5462 6.54388C11.3405 6.96321 11.2377 7.45567 11.2377 8.02128C11.2377 8.56738 11.3405 9.05496 11.5462 9.48404C11.7519 9.90337 12.0359 10.2349 12.3984 10.4787C12.7608 10.7128 13.1673 10.8298 13.6178 10.8298Z" fill="white"/>
<path d="M21.7896 12C21.339 12 20.9326 11.9171 20.5701 11.7513C20.2077 11.5758 19.9188 11.2979 19.7033 10.9176C19.4976 10.5372 19.3947 10.0448 19.3947 9.44016V1H20.7171V9.30851C20.7171 9.83511 20.8248 10.2252 21.0403 10.4787C21.2656 10.7323 21.5741 10.859 21.9659 10.859C22.152 10.859 22.3332 10.8395 22.5095 10.8005C22.6956 10.7518 22.8524 10.6981 22.9797 10.6396L23.3029 11.7074C23.1266 11.7855 22.9062 11.8537 22.6418 11.9122C22.3871 11.9707 22.1031 12 21.7896 12Z" fill="white"/>
<path d="M27.5499 12C26.825 12 26.1737 11.8342 25.5958 11.5027C25.0179 11.1613 24.5624 10.6933 24.2294 10.0984C23.9061 9.49379 23.7445 8.80142 23.7445 8.02128C23.7445 7.20213 23.911 6.49512 24.2441 5.90027C24.5771 5.30541 25.0326 4.84707 25.6105 4.52527C26.1884 4.20346 26.8348 4.04255 27.5499 4.04255C28.2649 4.04255 28.9065 4.20346 29.4746 4.52527C30.0525 4.84707 30.508 5.30541 30.841 5.90027C31.1838 6.48537 31.3552 7.18262 31.3552 7.99202C31.3552 8.80142 31.1887 9.50842 30.8557 10.113C30.5226 10.7079 30.0672 11.1711 29.4893 11.5027C28.9212 11.8342 28.2747 12 27.5499 12ZM27.5499 10.8298C28.3237 10.8298 28.9261 10.5714 29.357 10.0545C29.788 9.52793 30.0035 8.85018 30.0035 8.02128C30.0035 7.51418 29.8958 7.05097 29.6803 6.63165C29.4648 6.20257 29.1709 5.86126 28.7987 5.60771C28.4363 5.34441 28.02 5.21277 27.5499 5.21277C26.7761 5.21277 26.1737 5.46631 25.7427 5.9734C25.3117 6.4805 25.0962 7.15337 25.0962 7.99202C25.0962 8.49911 25.204 8.97207 25.4195 9.4109C25.6349 9.83998 25.9239 10.1862 26.2863 10.4495C26.6585 10.703 27.0797 10.8298 27.5499 10.8298Z" fill="white"/>
<path d="M33.8943 11.8245V4.21808H35.1726V5.49069C35.4468 5.08112 35.7946 4.7398 36.2157 4.46676C36.6467 4.18395 37.1561 4.04255 37.7438 4.04255C38.6057 4.04255 39.2473 4.30098 39.6685 4.81782C40.0995 5.33466 40.3149 6.01729 40.3149 6.86569V11.8245H38.9926V7.01197C38.9926 6.46587 38.8604 6.02704 38.5959 5.69548C38.3413 5.36392 37.9837 5.19814 37.5234 5.19814C37.0728 5.19814 36.6467 5.35904 36.2451 5.68085C35.8435 5.99291 35.5007 6.36347 35.2167 6.79255V11.8245H33.8943Z" fill="white"/>
<path d="M4.75298 12C4.03795 12 3.38658 11.9074 2.79888 11.7221C2.21118 11.527 1.71654 11.2735 1.31494 10.9614L2.02018 9.79122C2.3728 10.0838 2.7695 10.3227 3.21027 10.508C3.65105 10.6933 4.16528 10.7859 4.75298 10.7859C5.45822 10.7859 6.01654 10.6396 6.42793 10.3471C6.83932 10.0545 7.04501 9.65957 7.04501 9.16223C7.04501 8.87943 6.98624 8.63076 6.8687 8.41622C6.75116 8.19193 6.52098 7.97739 6.17815 7.77261C5.84513 7.55807 5.35048 7.3289 4.69421 7.08511C3.98897 6.81206 3.42576 6.53901 3.00458 6.26596C2.58339 5.98316 2.27975 5.66622 2.09364 5.31516C1.91733 4.95434 1.82918 4.53014 1.82918 4.04255C1.82918 3.55496 1.96141 3.11613 2.22588 2.72606C2.50014 2.32624 2.89683 2.00931 3.41597 1.77527C3.9449 1.53147 4.58157 1.40957 5.32599 1.40957C5.93328 1.40957 6.4769 1.47296 6.95686 1.59973C7.44661 1.71675 7.92166 1.88741 8.38203 2.1117L7.86779 3.29654C7.53476 3.10151 7.14296 2.9406 6.69239 2.81383C6.25162 2.6773 5.78636 2.60904 5.29661 2.60904C4.65014 2.60904 4.1408 2.73581 3.76859 2.98936C3.39638 3.24291 3.21027 3.56959 3.21027 3.96941C3.21027 4.22296 3.26414 4.44725 3.37189 4.64229C3.47963 4.83732 3.69023 5.02748 4.00367 5.21277C4.3269 5.39805 4.80686 5.60771 5.44353 5.84176C6.20754 6.12456 6.80993 6.42199 7.25071 6.73404C7.70128 7.0461 8.01961 7.38741 8.20572 7.75798C8.39182 8.11879 8.48488 8.53324 8.48488 9.00133C8.48488 9.63519 8.32326 10.1764 8.00002 10.625C7.68658 11.0736 7.24581 11.4149 6.6777 11.6489C6.11939 11.883 5.47781 12 4.75298 12Z" stroke="#BDBDBD" stroke-width="2" mask="url(#path-1-outside-1_3_388)"/>
<path d="M13.324 12C12.6873 12 12.1094 11.8391 11.5903 11.5173C11.0711 11.1955 10.6548 10.742 10.3414 10.1569C10.0378 9.56206 9.88594 8.8648 9.88594 8.06516C9.88594 7.30452 10.0378 6.6219 10.3414 6.01729C10.6548 5.41268 11.0809 4.93484 11.6197 4.58378C12.1682 4.22296 12.7951 4.04255 13.5003 4.04255C13.9411 4.04255 14.3378 4.12057 14.6904 4.2766C15.0528 4.42287 15.3662 4.60816 15.6307 4.83245V4.21808H16.8355V9.98138C16.8355 10.352 16.9236 10.5957 17.1 10.7128C17.2861 10.82 17.4869 10.8737 17.7023 10.8737L17.4232 11.8976C16.4829 11.8976 15.9148 11.5173 15.7189 10.7566C15.4936 11.0687 15.185 11.3564 14.7932 11.6197C14.4112 11.8732 13.9215 12 13.324 12ZM13.6178 10.8298C13.99 10.8298 14.3427 10.742 14.6757 10.5665C15.0087 10.3812 15.2879 10.152 15.5132 9.87899V5.79787C15.2487 5.61259 14.9549 5.46631 14.6316 5.35904C14.3182 5.24202 13.9851 5.18351 13.6325 5.18351C13.1624 5.18351 12.7461 5.30541 12.3837 5.5492C12.031 5.78324 11.7519 6.1148 11.5462 6.54388C11.3405 6.96321 11.2377 7.45567 11.2377 8.02128C11.2377 8.56738 11.3405 9.05496 11.5462 9.48404C11.7519 9.90337 12.0359 10.2349 12.3984 10.4787C12.7608 10.7128 13.1673 10.8298 13.6178 10.8298Z" stroke="#BDBDBD" stroke-width="2" mask="url(#path-1-outside-1_3_388)"/>
<path d="M21.7896 12C21.339 12 20.9326 11.9171 20.5701 11.7513C20.2077 11.5758 19.9188 11.2979 19.7033 10.9176C19.4976 10.5372 19.3947 10.0448 19.3947 9.44016V1H20.7171V9.30851C20.7171 9.83511 20.8248 10.2252 21.0403 10.4787C21.2656 10.7323 21.5741 10.859 21.9659 10.859C22.152 10.859 22.3332 10.8395 22.5095 10.8005C22.6956 10.7518 22.8524 10.6981 22.9797 10.6396L23.3029 11.7074C23.1266 11.7855 22.9062 11.8537 22.6418 11.9122C22.3871 11.9707 22.1031 12 21.7896 12Z" stroke="#BDBDBD" stroke-width="2" mask="url(#path-1-outside-1_3_388)"/>
<path d="M27.5499 12C26.825 12 26.1737 11.8342 25.5958 11.5027C25.0179 11.1613 24.5624 10.6933 24.2294 10.0984C23.9061 9.49379 23.7445 8.80142 23.7445 8.02128C23.7445 7.20213 23.911 6.49512 24.2441 5.90027C24.5771 5.30541 25.0326 4.84707 25.6105 4.52527C26.1884 4.20346 26.8348 4.04255 27.5499 4.04255C28.2649 4.04255 28.9065 4.20346 29.4746 4.52527C30.0525 4.84707 30.508 5.30541 30.841 5.90027C31.1838 6.48537 31.3552 7.18262 31.3552 7.99202C31.3552 8.80142 31.1887 9.50842 30.8557 10.113C30.5226 10.7079 30.0672 11.1711 29.4893 11.5027C28.9212 11.8342 28.2747 12 27.5499 12ZM27.5499 10.8298C28.3237 10.8298 28.9261 10.5714 29.357 10.0545C29.788 9.52793 30.0035 8.85018 30.0035 8.02128C30.0035 7.51418 29.8958 7.05097 29.6803 6.63165C29.4648 6.20257 29.1709 5.86126 28.7987 5.60771C28.4363 5.34441 28.02 5.21277 27.5499 5.21277C26.7761 5.21277 26.1737 5.46631 25.7427 5.9734C25.3117 6.4805 25.0962 7.15337 25.0962 7.99202C25.0962 8.49911 25.204 8.97207 25.4195 9.4109C25.6349 9.83998 25.9239 10.1862 26.2863 10.4495C26.6585 10.703 27.0797 10.8298 27.5499 10.8298Z" stroke="#BDBDBD" stroke-width="2" mask="url(#path-1-outside-1_3_388)"/>
<path d="M33.8943 11.8245V4.21808H35.1726V5.49069C35.4468 5.08112 35.7946 4.7398 36.2157 4.46676C36.6467 4.18395 37.1561 4.04255 37.7438 4.04255C38.6057 4.04255 39.2473 4.30098 39.6685 4.81782C40.0995 5.33466 40.3149 6.01729 40.3149 6.86569V11.8245H38.9926V7.01197C38.9926 6.46587 38.8604 6.02704 38.5959 5.69548C38.3413 5.36392 37.9837 5.19814 37.5234 5.19814C37.0728 5.19814 36.6467 5.35904 36.2451 5.68085C35.8435 5.99291 35.5007 6.36347 35.2167 6.79255V11.8245H33.8943Z" stroke="#BDBDBD" stroke-width="2" mask="url(#path-1-outside-1_3_388)"/>
</svg>
